<?xml version="1.0" encoding="UTF-8" standalone="no"?>
<!DOCTYPE svg PUBLIC "-//W3C//DTD SVG 1.1//EN"
 "http://www.w3.org/Graphics/SVG/1.1/DTD/svg11.dtd">
<!-- Generated by graphviz version 2.36.0 (20140111.2315)
 -->
<!-- Title: G Pages: 1 -->
<svg width="780pt" height="464pt"
 viewBox="0.00 0.00 780.00 464.00" xmlns="http://www.w3.org/2000/svg" xmlns:xlink="http://www.w3.org/1999/xlink">
<g id="graph0" class="graph" transform="scale(1 1) rotate(0) translate(4 460)">
<title>G</title>
<polygon fill="white" stroke="none" points="-4,4 -4,-460 776,-460 776,4 -4,4"/>
<g id="clust1" class="cluster"><title>cluster_Global</title>
<path fill="none" stroke="gray" d="M546,-8C546,-8 752,-8 752,-8 758,-8 764,-14 764,-20 764,-20 764,-436 764,-436 764,-442 758,-448 752,-448 752,-448 546,-448 546,-448 540,-448 534,-442 534,-436 534,-436 534,-20 534,-20 534,-14 540,-8 546,-8"/>
<text text-anchor="middle" x="649" y="-435.2" font-family="Times,serif" font-size="11.00" fill="gray">Global</text>
</g>
<g id="clust2" class="cluster"><title>cluster_\Mero</title>
<path fill="none" stroke="gray" d="M554,-16C554,-16 744,-16 744,-16 750,-16 756,-22 756,-28 756,-28 756,-408 756,-408 756,-414 750,-420 744,-420 744,-420 554,-420 554,-420 548,-420 542,-414 542,-408 542,-408 542,-28 542,-28 542,-22 548,-16 554,-16"/>
<text text-anchor="middle" x="649" y="-407.2" font-family="Times,serif" font-size="11.00" fill="gray">Mero</text>
</g>
<g id="clust3" class="cluster"><title>cluster_\Mero\BaseBundle</title>
<path fill="none" stroke="gray" d="M562,-24C562,-24 736,-24 736,-24 742,-24 748,-30 748,-36 748,-36 748,-380 748,-380 748,-386 742,-392 736,-392 736,-392 562,-392 562,-392 556,-392 550,-386 550,-380 550,-380 550,-36 550,-36 550,-30 556,-24 562,-24"/>
<text text-anchor="middle" x="649" y="-379.2" font-family="Times,serif" font-size="11.00" fill="gray">BaseBundle</text>
</g>
<g id="clust4" class="cluster"><title>cluster_\Mero\BaseBundle\Controller</title>
<path fill="none" stroke="gray" d="M570,-292C570,-292 728,-292 728,-292 734,-292 740,-298 740,-304 740,-304 740,-352 740,-352 740,-358 734,-364 728,-364 728,-364 570,-364 570,-364 564,-364 558,-358 558,-352 558,-352 558,-304 558,-304 558,-298 564,-292 570,-292"/>
<text text-anchor="middle" x="649" y="-351.2" font-family="Times,serif" font-size="11.00" fill="gray">Controller</text>
</g>
<g id="clust5" class="cluster"><title>cluster_\Mero\BaseBundle\DependencyInjection</title>
<path fill="none" stroke="gray" d="M587,-158C587,-158 711,-158 711,-158 717,-158 723,-164 723,-170 723,-170 723,-272 723,-272 723,-278 717,-284 711,-284 711,-284 587,-284 587,-284 581,-284 575,-278 575,-272 575,-272 575,-170 575,-170 575,-164 581,-158 587,-158"/>
<text text-anchor="middle" x="649" y="-271.2" font-family="Times,serif" font-size="11.00" fill="gray">DependencyInjection</text>
</g>
<g id="clust6" class="cluster"><title>cluster_\Mero\BaseBundle\Entity</title>
<path fill="none" stroke="gray" d="M597,-78C597,-78 701,-78 701,-78 707,-78 713,-84 713,-90 713,-90 713,-138 713,-138 713,-144 707,-150 701,-150 701,-150 597,-150 597,-150 591,-150 585,-144 585,-138 585,-138 585,-90 585,-90 585,-84 591,-78 597,-78"/>
<text text-anchor="middle" x="649" y="-137.2" font-family="Times,serif" font-size="11.00" fill="gray">Entity</text>
</g>
<!-- \\Mero\\BaseBundle\\Controller\\AbstractCrudController -->
<g id="node1" class="node"><title>\\Mero\\BaseBundle\\Controller\\AbstractCrudController</title>
<polygon fill="none" stroke="black" points="731.5,-336 566.5,-336 566.5,-300 731.5,-300 731.5,-336"/>
<text text-anchor="start" x="615" y="-321.2" font-family="Courier,monospace" font-size="11.00">«abstract»</text>
<text text-anchor="start" x="574.5" y="-309.2" font-family="Courier,monospace" font-size="11.00">AbstractCrudController</text>
</g>
<!-- \\Symfony\\Bundle\\FrameworkBundle\\Controller\\Controller -->
<g id="node6" class="node"><title>\\Symfony\\Bundle\\FrameworkBundle\\Controller\\Controller</title>
<ellipse fill="none" stroke="black" cx="247" cy="-318" rx="219.861" ry="18"/>
<text text-anchor="middle" x="247" y="-314.3" font-family="Times,serif" font-size="14.00" fill="gray">\Symfony\Bundle\FrameworkBundle\Controller\Controller</text>
</g>
<!-- \\Mero\\BaseBundle\\Controller\\AbstractCrudController&#45;&gt;\\Symfony\\Bundle\\FrameworkBundle\\Controller\\Controller -->
<g id="edge1" class="edge"><title>\\Mero\\BaseBundle\\Controller\\AbstractCrudController&#45;&gt;\\Symfony\\Bundle\\FrameworkBundle\\Controller\\Controller</title>
<path fill="none" stroke="black" d="M566.089,-318C539.69,-318 509.014,-318 477.334,-318"/>
<polygon fill="none" stroke="black" points="477.017,-314.5 467.017,-318 477.017,-321.5 477.017,-314.5"/>
</g>
<!-- \\Mero\\BaseBundle\\DependencyInjection\\MeroBaseExtension -->
<g id="node2" class="node"><title>\\Mero\\BaseBundle\\DependencyInjection\\MeroBaseExtension</title>
<polygon fill="none" stroke="black" points="714.5,-256 583.5,-256 583.5,-220 714.5,-220 714.5,-256"/>
<text text-anchor="middle" x="649" y="-235.2" font-family="Courier,monospace" font-size="11.00">MeroBaseExtension</text>
</g>
<!-- \\Symfony\\Component\\HttpKernel\\DependencyInjection\\Extension -->
<g id="node7" class="node"><title>\\Symfony\\Component\\HttpKernel\\DependencyInjection\\Extension</title>
<ellipse fill="none" stroke="black" cx="247" cy="-238" rx="246.956" ry="18"/>
<text text-anchor="middle" x="247" y="-234.3" font-family="Times,serif" font-size="14.00" fill="gray">\Symfony\Component\HttpKernel\DependencyInjection\Extension</text>
</g>
<!-- \\Mero\\BaseBundle\\DependencyInjection\\MeroBaseExtension&#45;&gt;\\Symfony\\Component\\HttpKernel\\DependencyInjection\\Extension -->
<g id="edge2" class="edge"><title>\\Mero\\BaseBundle\\DependencyInjection\\MeroBaseExtension&#45;&gt;\\Symfony\\Component\\HttpKernel\\DependencyInjection\\Extension</title>
<path fill="none" stroke="black" d="M583.289,-238C560.543,-238 533.402,-238 504.55,-238"/>
<polygon fill="none" stroke="black" points="504.278,-234.5 494.278,-238 504.278,-241.5 504.278,-234.5"/>
</g>
<!-- \\Mero\\BaseBundle\\DependencyInjection\\Configuration -->
<g id="node3" class="node"><title>\\Mero\\BaseBundle\\DependencyInjection\\Configuration</title>
<polygon fill="none" stroke="black" points="701,-202 597,-202 597,-166 701,-166 701,-202"/>
<text text-anchor="middle" x="649" y="-181.2" font-family="Courier,monospace" font-size="11.00">Configuration</text>
</g>
<!-- \\Symfony\\Component\\Config\\Definition\\ConfigurationInterface -->
<g id="node8" class="node"><title>\\Symfony\\Component\\Config\\Definition\\ConfigurationInterface</title>
<ellipse fill="none" stroke="black" cx="247" cy="-184" rx="237.758" ry="18"/>
<text text-anchor="middle" x="247" y="-180.3" font-family="Times,serif" font-size="14.00" fill="gray">\Symfony\Component\Config\Definition\ConfigurationInterface</text>
</g>
<!-- \\Mero\\BaseBundle\\DependencyInjection\\Configuration&#45;&gt;\\Symfony\\Component\\Config\\Definition\\ConfigurationInterface -->
<g id="edge3" class="edge"><title>\\Mero\\BaseBundle\\DependencyInjection\\Configuration&#45;&gt;\\Symfony\\Component\\Config\\Definition\\ConfigurationInterface</title>
<path fill="none" stroke="black" stroke-dasharray="1,5" d="M596.933,-184C569.576,-184 533.642,-184 495.243,-184"/>
<polygon fill="none" stroke="black" points="494.894,-180.5 484.894,-184 494.894,-187.5 494.894,-180.5"/>
</g>
<!-- \\Mero\\BaseBundle\\Entity\\AbstractEntity -->
<g id="node4" class="node"><title>\\Mero\\BaseBundle\\Entity\\AbstractEntity</title>
<polygon fill="none" stroke="black" points="704.5,-122 593.5,-122 593.5,-86 704.5,-86 704.5,-122"/>
<text text-anchor="start" x="615" y="-107.2" font-family="Courier,monospace" font-size="11.00">«abstract»</text>
<text text-anchor="start" x="601.5" y="-95.2" font-family="Courier,monospace" font-size="11.00">AbstractEntity</text>
</g>
<!-- \\Mero\\BaseBundle\\MeroBaseBundle -->
<g id="node5" class="node"><title>\\Mero\\BaseBundle\\MeroBaseBundle</title>
<polygon fill="none" stroke="black" points="704.5,-68 593.5,-68 593.5,-32 704.5,-32 704.5,-68"/>
<text text-anchor="middle" x="649" y="-47.2" font-family="Courier,monospace" font-size="11.00">MeroBaseBundle</text>
</g>
<!-- \\Symfony\\Component\\HttpKernel\\Bundle\\Bundle -->
<g id="node9" class="node"><title>\\Symfony\\Component\\HttpKernel\\Bundle\\Bundle</title>
<ellipse fill="none" stroke="black" cx="247" cy="-50" rx="187.367" ry="18"/>
<text text-anchor="middle" x="247" y="-46.3" font-family="Times,serif" font-size="14.00" fill="gray">\Symfony\Component\HttpKernel\Bundle\Bundle</text>
</g>
<!-- \\Mero\\BaseBundle\\MeroBaseBundle&#45;&gt;\\Symfony\\Component\\HttpKernel\\Bundle\\Bundle -->
<g id="edge4" class="edge"><title>\\Mero\\BaseBundle\\MeroBaseBundle&#45;&gt;\\Symfony\\Component\\HttpKernel\\Bundle\\Bundle</title>
<path fill="none" stroke="black" d="M593.22,-50C554.244,-50 499.303,-50 444.691,-50"/>
<polygon fill="none" stroke="black" points="444.502,-46.5001 434.502,-50 444.502,-53.5001 444.502,-46.5001"/>
</g>
</g>
</svg>
